# xmcd
# 
# Track frame offsets:
#     150
#     18618
#     80166
#     123395
#     188901
#     253407
#     305173
# 
# Disc length: 4711
# 
# Revision: 0
# Processed by: cddbd v1.5.2PL0 Copyright (c) Steve Scherf et al.
# Submitted via: fre:ac v1.0.17
# 
DISCID=66126507
DTITLE=Ralph erdenberger - Sagenhaftes Ägypten CD 1
DYEAR=2015
DGENRE=
TTITLE0=Die Schöpfungsgeschichte von Heliopolis
TTITLE1=Der Osiris-Mythos
TTITLE2=König Narmer eint Ägypten
TTITLE3=Der Baumeister der Cheops-Pyramide
TTITLE4=Die Schlacht von Megiddo
TTITLE5=Die Büste der Nofretete
TTITLE6=Der tote Prinz
EXTD=
EXTT0=
EXTT1=
EXTT2=
EXTT3=
EXTT4=
EXTT5=
EXTT6=
PLAYORDER=
